<?xml version="1.0" standalone="no"?>
<!DOCTYPE svg PUBLIC "-//W3C//DTD SVG 20010904//EN"
 "http://www.w3.org/TR/2001/REC-SVG-20010904/DTD/svg10.dtd">
<svg version="1.0" xmlns="http://www.w3.org/2000/svg"
 width="798.000000pt" height="938.000000pt" viewBox="0 0 798.000000 938.000000"
 preserveAspectRatio="xMidYMid meet">
<metadata>
Created by potrace 1.16, written by Peter Selinger 2001-2019
</metadata>
   <g transform="translate(0.000000,938.000000) scale(0.100000,-0.100000)"
   fill="#000000" stroke="none">
   <path d="M7735 9333 c4 -27 13 -55 20 -63 7 -8 15 -24 17 -35 2 -12 13 -21 26
   -23 12 -2 22 -8 22 -13 0 -5 25 -9 55 -9 57 0 64 -6 43 -40 -7 -10 -9 -23 -4
   -27 4 -4 13 1 19 12 10 17 13 11 18 -45 l6 -65 4 70 c2 39 6 -272 9 -690 l5
   -760 3 868 2 867 -126 0 -126 0 7 -47z"/>
   <path d="M3241 9279 c-24 -4 -48 -12 -55 -18 -26 -21 -188 -101 -205 -101 -10
   0 -24 7 -31 16 -21 25 -48 35 -75 28 -14 -3 -25 -12 -25 -20 0 -7 -14 -21 -30
   -29 -17 -9 -36 -27 -42 -40 -6 -13 -30 -36 -53 -50 -24 -16 -58 -51 -78 -83
   -32 -50 -34 -57 -19 -68 15 -11 14 -15 -11 -48 l-28 -36 50 0 c48 0 64 -10 41
   -25 -5 -3 -10 -19 -10 -34 0 -29 -72 -151 -90 -151 -5 0 -24 -30 -42 -67 -26
-56 -32 -79 -30 -127 2 -55 1 -60 -33 -92 -20 -19 -32 -34 -26 -34 27 0 7 -17
-33 -29 -27 -7 -58 -28 -82 -53 -22 -22 -61 -51 -89 -64 -27 -13 -42 -24 -32
-24 28 0 20 -16 -36 -67 -77 -70 -93 -101 -107 -221 -8 -66 -18 -110 -30 -125
-24 -31 -18 -123 13 -201 24 -61 46 -123 50 -140 1 -5 -9 -12 -23 -16 -22 -5
-23 -7 -7 -13 10 -4 31 -7 47 -7 15 0 33 -7 40 -15 7 -8 18 -15 25 -15 29 0
42 -36 48 -127 4 -68 3 -93 -6 -93 -7 -1 3 -7 21 -15 55 -24 72 -111 27 -141
-21 -13 -40 -16 -96 -11 l-70 6 25 -20 c22 -17 34 -19 83 -13 32 3 66 11 77
16 13 7 23 6 34 -6 15 -15 14 -16 -5 -16 -12 0 -24 -4 -27 -9 -3 -4 -23 -11
-43 -13 -21 -3 -60 -20 -88 -37 -27 -17 -60 -31 -73 -31 -13 0 -21 -4 -18 -9
8 -12 83 3 104 22 22 19 108 49 149 50 17 0 39 -5 48 -13 27 -22 95 -170 102
-219 5 -45 40 -121 54 -121 4 0 28 -21 54 -47 41 -41 46 -50 41 -78 -6 -28 -3
-33 15 -38 20 -5 21 -10 15 -57 -5 -40 -4 -52 9 -56 8 -3 20 -24 27 -47 7 -22
20 -50 30 -61 10 -12 38 -44 63 -72 48 -54 54 -74 30 -94 -9 -8 -15 -29 -15
-56 0 -40 -3 -46 -40 -69 -22 -14 -42 -25 -44 -25 -3 0 -22 -11 -42 -25 -20
-14 -45 -25 -55 -25 -10 0 -20 -8 -24 -18 -3 -11 -15 -24 -28 -29 -75 -35
-260 -226 -336 -349 -23 -38 -61 -98 -83 -134 -36 -55 -70 -140 -128 -310 -6
-19 -15 -44 -19 -55 -8 -19 -32 -100 -52 -170 -36 -127 -67 -229 -104 -345
-24 -74 -65 -211 -91 -305 -26 -93 -66 -217 -89 -275 -68 -170 -66 -152 -69
-494 -3 -293 -2 -318 15 -346 24 -39 24 -57 -2 -122 -25 -62 -26 -137 -5 -211
9 -29 27 -90 40 -137 13 -47 40 -130 59 -185 18 -55 40 -125 47 -155 16 -71
54 -146 83 -164 12 -8 45 -22 74 -31 54 -18 63 -30 63 -91 0 -18 16 -108 36
-200 26 -128 42 -181 65 -217 16 -27 29 -50 29 -52 0 -2 27 -48 60 -102 33
-53 60 -108 60 -120 0 -13 -9 -41 -19 -61 -42 -83 -36 -143 15 -156 24 -6 25
-10 19 -39 -4 -18 -9 -123 -10 -233 -1 -111 -6 -207 -10 -213 -4 -7 1 -18 11
-26 15 -10 16 -16 6 -28 -10 -12 -10 -16 0 -20 10 -3 11 -8 1 -26 -7 -11 -13
-25 -13 -31 0 -17 33 -11 55 10 l21 20 22 -29 c20 -28 20 -29 3 -62 -10 -19
-25 -35 -32 -37 -8 -1 -36 18 -62 43 -48 45 -62 49 -109 30 -18 -7 -23 -18
-34 -79 -6 -36 -5 -38 15 -31 15 4 21 2 21 -9 0 -10 -6 -13 -15 -10 -9 4 -15
0 -15 -10 0 -9 -7 -16 -15 -16 -19 0 -19 -17 0 -36 12 -13 15 -13 15 -2 0 8 7
23 16 34 15 18 15 17 10 -13 -6 -34 2 -41 21 -22 8 8 13 6 17 -8 4 -11 17 -25
30 -31 13 -6 27 -20 31 -31 6 -20 13 -21 211 -21 l204 0 0 27 c0 18 13 38 42
65 23 21 47 37 52 35 6 -2 12 -31 14 -65 l3 -62 2619 0 2620 0 -2 2518 c-2
2001 -4 2263 -8 1277 -3 -682 -7 -1159 -9 -1060 -3 124 -6 161 -10 120 -4 -37
-8 -51 -11 -36 -6 28 -30 41 -30 16 0 -13 -6 -15 -30 -10 -26 6 -30 4 -30 -14
0 -19 4 -21 39 -15 44 7 55 -3 45 -41 -4 -18 -13 -25 -30 -25 -15 0 -24 6 -24
15 0 10 -10 15 -29 15 -28 0 -28 -1 -33 -71 -3 -39 -11 -76 -17 -82 -17 -17
-14 -60 3 -54 12 5 14 -3 9 -46 -3 -29 -10 -53 -15 -55 -4 -2 -8 -10 -8 -18 0
-8 -4 -14 -8 -14 -4 0 -16 -20 -26 -45 -12 -29 -25 -45 -36 -45 -14 0 -18 -12
-23 -57 -4 -36 -12 -60 -21 -65 -11 -6 -16 -24 -16 -61 0 -51 -1 -53 -32 -62
-25 -8 -35 -18 -43 -42 -5 -18 -13 -33 -17 -33 -4 0 -8 -7 -8 -15 0 -8 5 -15
10 -15 6 0 10 -6 10 -14 0 -9 -7 -12 -19 -9 -24 6 -55 -48 -46 -77 11 -33 -12
-22 -24 11 -8 23 -15 30 -27 25 -8 -3 -31 -6 -50 -6 -45 0 -57 -26 -24 -52
l24 -19 -37 -33 c-30 -26 -37 -40 -37 -69 0 -21 -4 -37 -9 -37 -14 0 -61 -45
-61 -59 0 -6 -11 -11 -25 -11 -14 0 -25 -6 -25 -12 0 -10 -2 -10 -8 0 -15 22
-56 -2 -72 -42 -10 -26 -18 -35 -30 -31 -26 8 -77 -45 -85 -88 -4 -20 -11 -37
-16 -37 -5 0 -9 -6 -9 -14 0 -10 -20 -15 -72 -19 -64 -4 -75 -2 -91 16 -17 20
-18 20 -37 1 -10 -10 -27 -26 -36 -34 -16 -13 -17 -13 -11 3 4 10 0 31 -8 47
-8 15 -15 41 -16 57 -2 40 29 242 43 278 6 17 14 55 19 85 12 84 27 151 46
195 13 30 16 68 16 152 -1 62 -4 121 -7 131 -4 10 2 26 12 38 43 46 53 72 54
142 1 43 -3 76 -11 85 -9 12 -9 18 1 28 28 29 41 77 46 167 4 84 3 96 -17 122
-27 37 -27 39 8 140 25 73 30 106 36 230 6 140 35 408 55 500 23 110 22 125
-5 190 -14 34 -49 130 -77 214 -28 83 -68 192 -89 242 -22 51 -48 129 -60 174
-21 87 -77 245 -140 400 -62 151 -115 315 -144 444 -16 75 -35 132 -51 155
-13 19 -24 39 -24 44 0 20 -91 139 -156 203 -39 39 -77 80 -82 91 -6 11 -49
52 -96 92 -112 95 -228 143 -380 157 -39 3 -114 14 -168 25 -53 10 -109 19
-126 19 -16 0 -41 9 -55 20 -14 11 -39 20 -55 20 -60 0 -87 11 -110 46 -32 49
-110 85 -206 96 -55 6 -99 18 -141 39 l-62 30 -54 -21 c-30 -12 -59 -26 -65
-31 -7 -5 -35 -12 -63 -16 -33 -4 -51 -10 -51 -19 0 -8 10 -14 23 -15 12 0 17
-3 10 -5 -26 -11 55 -123 89 -124 9 -1 8 -5 -4 -13 -15 -12 -14 -17 13 -63 31
-52 37 -83 17 -85 -7 -1 -24 -4 -38 -6 -14 -2 -54 -4 -89 -3 l-63 1 6 -35 c5
-24 3 -35 -8 -39 -14 -6 -11 -53 5 -63 5 -3 9 -13 9 -23 0 -14 10 -20 40 -24
28 -4 49 -15 73 -41 19 -20 39 -36 45 -36 6 0 12 -12 14 -26 l3 -26 37 39 c73
75 108 125 123 176 40 135 -3 242 -111 277 -53 17 -58 35 -10 34 50 -2 106
-34 140 -82 29 -41 31 -50 34 -150 5 -159 -10 -271 -51 -384 -33 -91 -70 -154
-202 -343 -40 -58 -127 -242 -139 -297 -8 -37 -82 -127 -109 -132 -29 -6 -346
-35 -417 -38 l-54 -3 -53 75 c-29 41 -73 109 -98 150 -24 41 -56 89 -71 105
-14 17 -36 41 -48 55 -11 14 -50 50 -86 79 -36 30 -77 70 -92 90 -36 49 -71
140 -64 167 5 19 1 24 -26 29 -18 4 -39 11 -48 16 -8 4 -26 10 -40 13 -14 3
-31 14 -37 25 -11 18 -10 22 10 32 12 7 44 11 70 10 41 -2 57 4 105 35 31 21
73 53 94 72 21 19 55 40 76 48 25 9 30 13 15 14 -12 0 -54 -18 -95 -39 -44
-24 -99 -44 -138 -51 -36 -6 -77 -18 -92 -25 -45 -22 -84 -27 -95 -13 -6 7
-16 39 -23 71 -9 46 -15 57 -31 57 -42 0 -108 55 -109 91 0 9 -7 33 -15 52 -8
20 -15 54 -15 76 0 22 -5 52 -12 68 -15 37 -19 126 -6 134 6 4 7 16 2 30 l-8
24 -7 -25 c-7 -25 -7 -25 -14 -3 -4 12 -13 24 -21 27 -8 3 -14 11 -14 17 0 7
-16 31 -35 55 -39 47 -81 66 -188 82 -139 21 -151 46 -152 312 0 142 5 221 17
290 19 106 41 337 33 350 -8 12 46 64 82 79 40 16 122 6 140 -17 7 -10 20 -32
29 -50 9 -17 39 -51 68 -74 28 -24 57 -51 64 -61 7 -9 18 -15 23 -11 6 3 -7
25 -28 49 -54 63 -86 105 -81 110 6 6 122 -13 154 -25 14 -6 42 -10 63 -10 29
0 44 -7 67 -31 16 -17 43 -38 59 -46 21 -11 26 -11 18 -2 -32 33 5 49 122 53
57 3 77 -2 69 -15 -7 -12 13 -11 36 1 15 8 19 5 22 -15 3 -13 0 -26 -5 -28 -6
-2 10 -13 36 -26 45 -22 96 -26 89 -7 -6 15 18 24 83 31 55 7 58 6 40 -8 -31
-24 -10 -31 42 -15 32 10 50 12 54 5 4 -5 14 -7 24 -4 9 4 13 3 10 -2 -3 -5
-1 -12 5 -16 5 -3 10 -16 10 -28 0 -12 7 -31 15 -41 8 -11 15 -34 15 -51 0
-45 26 -116 54 -146 22 -24 24 -35 25 -120 1 -141 11 -230 29 -266 16 -33 24
-38 76 -54 28 -8 28 -8 22 24 -4 18 -11 88 -16 157 -5 69 -17 157 -26 195 -29
125 -29 170 0 245 15 37 38 82 51 100 14 19 25 42 25 51 0 28 55 79 85 79 51
0 125 -31 140 -59 l14 -26 1 28 c0 35 -40 116 -73 144 -20 17 -26 31 -25 61 0
22 -4 46 -8 54 -5 7 -9 83 -9 170 0 142 1 155 16 147 23 -12 53 -80 74 -167 9
-39 26 -83 36 -96 10 -13 19 -28 19 -34 0 -5 8 -17 19 -26 17 -15 19 -15 25
-1 10 28 7 55 -8 55 -16 0 -26 21 -26 54 0 12 -5 27 -10 32 -14 14 -29 110
-19 126 19 30 79 -77 79 -141 0 -12 4 -21 10 -21 5 0 8 28 5 69 -4 87 11 109
46 62 29 -40 52 -41 43 -3 -4 15 -13 36 -20 47 -21 30 -17 45 14 46 23 2 24 2
5 6 -25 5 -63 47 -63 70 0 12 7 13 27 8 15 -3 30 -10 33 -14 6 -9 65 -41 76
-41 4 0 -5 9 -19 20 -14 11 -30 20 -37 20 -26 0 4 19 47 30 47 11 108 39 88
40 -5 0 -44 -7 -86 -15 -81 -15 -115 -11 -163 20 -14 10 -26 23 -26 30 0 15
-85 64 -156 91 -37 14 -54 15 -119 5 -66 -10 -79 -9 -101 6 -14 9 -30 26 -34
38 -5 13 -21 26 -36 29 -16 4 -39 19 -53 33 -14 14 -39 32 -56 40 -16 9 -38
24 -48 34 -10 11 -28 19 -40 19 -52 0 -197 91 -197 124 0 8 -4 18 -10 21 -5 3
-10 24 -10 46 0 31 4 39 18 39 10 0 23 -5 29 -11 6 -6 15 -9 20 -6 14 9 8 139
-8 172 -22 45 -102 88 -171 91 -73 3 -81 8 -72 47 10 47 24 146 27 189 5 83
-25 100 -79 43 -36 -39 -44 -42 -44 -20 0 24 -43 83 -68 95 -13 5 -24 10 -25
9 -1 -1 -22 -5 -46 -10z m-101 -3995 c73 -25 227 -134 380 -268 8 -7 40 -30
70 -52 93 -65 121 -97 115 -136 -4 -26 -3 -29 4 -13 8 16 10 12 10 -21 1 -28
6 -44 16 -48 8 -3 15 -15 15 -26 0 -11 5 -20 10 -20 6 0 10 -6 10 -13 0 -7 20
-34 45 -61 24 -27 47 -57 50 -68 4 -10 10 -18 15 -18 5 0 16 -12 24 -27 16
-29 45 -63 127 -150 27 -28 49 -54 49 -57 0 -3 9 -15 20 -26 11 -11 20 -29 20
-40 0 -25 -31 -93 -47 -103 -7 -4 -13 -18 -13 -30 0 -12 -11 -42 -25 -67 -14
-25 -28 -53 -32 -62 -3 -10 -10 -18 -15 -18 -6 0 -7 8 -3 18 4 9 10 28 13 42
l5 25 -21 -26 c-21 -25 -26 -69 -9 -69 5 0 7 -10 5 -22 -2 -17 -9 -22 -22 -20
-17 3 -18 2 -7 -12 8 -9 11 -19 8 -22 -9 -9 -27 5 -27 22 0 8 -10 14 -25 14
-14 0 -25 -4 -25 -10 0 -5 -7 -10 -15 -10 -20 0 -19 -24 1 -41 13 -10 17 -10
23 0 7 10 12 10 30 0 28 -18 27 -39 -1 -36 -21 2 -23 -2 -20 -38 l3 -40 -16
30 c-26 49 -41 61 -59 46 -9 -8 -13 -17 -10 -22 3 -5 2 -18 -1 -29 -10 -32
-33 -1 -37 51 -2 36 -7 44 -23 44 -17 0 -21 -8 -23 -45 -4 -55 -24 -85 -32
-49 -5 20 -13 25 -49 27 -24 2 -50 10 -58 18 -8 8 -34 14 -59 14 l-44 0 -2 78
-2 77 -6 -80 -6 -80 -2 63 c-2 65 -14 78 -46 47 -16 -17 -56 -20 -56 -5 0 6
-7 10 -15 10 -12 0 -15 -13 -15 -55 l0 -55 -40 0 c-27 0 -43 -5 -46 -15 -4 -8
-13 -15 -21 -15 -10 0 -13 9 -11 33 3 31 4 32 46 29 48 -4 56 13 22 50 -18 19
-22 20 -47 8 -16 -8 -31 -16 -35 -18 -5 -2 -8 12 -8 30 0 44 -15 58 -63 58
-27 0 -36 4 -32 13 4 6 0 4 -8 -5 -8 -10 -18 -18 -23 -18 -5 0 -8 -49 -6 -110
3 -105 2 -110 -17 -110 -19 0 -21 6 -21 51 0 42 -3 52 -20 56 -13 4 -20 14
-20 30 0 18 -5 24 -17 21 -13 -2 -19 -15 -21 -46 -3 -41 -4 -42 -37 -42 -22 0
-38 -6 -44 -17 -9 -15 -10 -12 -11 15 0 17 5 32 10 32 17 0 11 30 -11 53 l-21
22 3 -92 c2 -51 0 -95 -3 -98 -11 -12 -14 169 -3 201 10 31 31 63 23 37 -2 -6
1 -10 7 -10 5 1 9 11 7 22 -2 18 -1 18 10 3 11 -15 13 -15 22 4 17 34 40 36
32 4 -3 -14 -2 -26 3 -26 15 0 22 31 11 45 -8 10 -7 24 5 50 8 21 15 52 16 69
0 27 2 28 10 11 6 -14 7 -7 3 24 -4 31 -3 41 5 37 6 -4 11 -3 11 3 0 5 -5 11
-12 13 -14 5 -12 316 3 355 5 14 10 109 10 212 0 132 6 221 19 306 11 66 21
134 22 150 2 23 8 30 24 29 14 0 20 4 17 13 -7 17 2 16 57 -3z m1461 -292
c-20 -7 36 -52 66 -52 13 0 23 -6 23 -14 0 -8 6 -14 13 -13 45 1 47 -1 48 -65
1 -35 3 -55 6 -45 6 22 9 21 39 -2 l24 -19 -30 -30 c-36 -36 -42 -91 -11 -99
22 -6 33 -47 18 -62 -6 -6 -19 -11 -29 -11 -20 0 -25 -20 -5 -21 10 0 10 -2 0
-6 -18 -7 -16 -23 2 -23 20 0 19 -16 -1 -24 -8 -3 -12 -11 -8 -17 4 -7 18 2
39 25 30 34 45 38 45 12 0 -6 -24 -27 -53 -46 -28 -19 -66 -47 -84 -63 -20
-19 -38 -27 -48 -23 -10 4 -14 2 -9 -6 4 -6 -1 -17 -11 -24 -22 -16 -164 -145
-249 -225 -56 -53 -66 -79 -31 -79 8 0 39 24 69 53 30 28 71 66 90 82 20 17
38 32 41 34 2 2 11 -2 20 -9 9 -8 15 -8 15 -2 0 6 -5 14 -10 17 -11 7 42 69
61 71 5 1 14 2 19 3 6 0 10 6 10 12 0 13 15 26 85 73 28 18 61 43 74 55 29 25
39 26 70 5 17 -12 26 -13 34 -5 8 8 5 11 -11 11 -30 0 -28 14 8 50 35 36 44
37 57 8 8 -18 6 -26 -11 -40 l-21 -17 24 2 c14 1 26 9 29 19 6 23 62 25 62 3
0 -8 7 -15 15 -15 8 0 15 -7 15 -15 0 -9 9 -15 25 -15 23 0 25 -4 25 -40 0
-34 -3 -40 -20 -40 -11 0 -23 -7 -26 -15 -4 -8 -19 -15 -34 -15 -32 0 -43 -11
-34 -34 7 -18 54 -22 54 -5 0 5 5 7 10 4 6 -3 10 -24 10 -46 0 -39 0 -39 -40
-39 -22 0 -40 -4 -40 -10 0 -5 7 -10 15 -10 48 0 83 -90 63 -164 l-12 -46 -56
-1 c-30 -1 -45 -4 -33 -6 29 -6 39 -33 12 -33 -11 0 -22 -7 -25 -15 -4 -8 -17
-15 -31 -15 -25 0 -53 -20 -53 -39 0 -6 -7 -11 -15 -11 -9 0 -19 -8 -22 -17
-11 -28 -26 -40 -61 -48 -18 -3 -32 -10 -32 -15 0 -5 -14 -11 -31 -15 -20 -5
-29 -12 -25 -20 7 -18 -12 -32 -51 -37 -27 -4 -33 -1 -33 14 0 11 -5 16 -10
13 -6 -4 -9 -14 -8 -23 2 -13 -3 -16 -21 -14 -13 1 -29 -2 -36 -8 -7 -6 -20
-8 -29 -4 -9 3 -16 2 -16 -4 0 -6 -23 -15 -52 -21 -28 -6 -56 -19 -63 -27 -9
-13 -13 -4 -23 50 -9 46 -9 72 -2 85 5 11 10 36 10 55 0 20 5 36 11 36 20 0 1
118 -22 141 -20 20 -20 19 -18 -42 2 -49 -1 -63 -15 -71 -10 -6 -15 -16 -11
-28 3 -10 -6 -43 -19 -75 -24 -53 -25 -59 -11 -92 26 -63 22 -70 -42 -72 -71
-2 -84 -13 -38 -31 19 -8 35 -21 35 -29 0 -19 -48 -42 -105 -52 l-40 -6 48 -2
c32 -1 47 -5 47 -14 0 -10 -20 -14 -71 -15 -82 -3 -89 -5 -90 -35 -1 -12 -6
-2 -12 23 -6 26 -12 37 -14 28 -6 -24 -24 -23 -30 2 -7 27 -27 20 -32 -11 -3
-23 -4 -22 -21 11 l-19 35 6 -39 c5 -30 3 -38 -7 -34 -23 7 -32 60 -13 80 9
10 13 21 9 26 -4 4 -14 -2 -22 -12 -27 -37 -14 6 16 56 17 26 30 52 30 57 0 5
9 28 20 52 11 24 20 55 20 68 0 14 6 32 13 40 8 9 24 45 36 81 25 70 71 180
103 245 11 22 26 63 33 90 19 74 47 145 72 185 13 19 28 44 35 55 7 11 20 32
30 46 9 15 20 39 24 55 4 15 20 47 36 70 15 23 28 47 28 53 0 6 5 11 10 11 6
0 10 7 10 15 0 8 9 23 20 32 11 10 20 25 20 33 0 21 23 70 33 70 5 0 5 4 2 10
-8 12 26 59 43 60 6 0 12 5 12 10 0 13 63 70 70 63 3 -3 -1 -8 -9 -11z m-757
-257 c16 -15 39 -25 57 -25 43 0 190 -142 209 -202 8 -24 24 -66 36 -95 19
-44 21 -57 11 -83 -14 -36 -32 -39 -49 -6 -7 13 -42 55 -78 93 -36 38 -78 89
-95 113 -16 25 -35 51 -42 57 -6 7 -21 28 -33 48 -12 19 -25 35 -30 35 -7 0
-40 71 -40 85 0 13 30 2 54 -20z m-971 -1702 c3 -10 5 -56 5 -103 1 -47 4
-172 8 -278 6 -172 5 -192 -9 -186 -9 3 -22 16 -30 28 -8 12 -40 34 -71 50
-31 16 -56 31 -56 33 0 3 14 21 30 40 24 27 30 43 30 82 0 46 -2 49 -50 82
-54 37 -64 65 -36 105 8 11 16 33 18 49 2 23 9 31 27 33 34 5 65 27 81 57 15
29 47 33 53 8z"/>
<path d="M1925 7244 c-49 -20 -106 -40 -125 -46 -46 -13 -56 -24 -41 -42 6 -8
9 -25 6 -38 -5 -20 3 -33 46 -73 29 -27 47 -51 41 -53 -7 -2 -12 -7 -12 -12 0
-14 94 -68 130 -74 34 -6 35 -6 13 10 -30 21 -29 32 3 44 19 8 24 15 19 28 -4
9 -9 30 -12 46 -3 16 -9 40 -14 53 -5 13 -9 43 -10 66 0 23 -3 36 -6 29 -2 -6
-9 -9 -14 -6 -6 3 -21 -1 -34 -10 -28 -18 -45 -21 -45 -6 0 6 8 10 18 10 13 0
14 2 4 9 -11 6 -7 13 14 30 14 11 34 21 43 21 9 0 27 7 39 16 13 9 35 20 50
24 l27 8 -25 0 c-14 1 -65 -15 -115 -34z"/>
<path d="M4235 6733 c11 -31 36 -136 45 -192 6 -35 4 -84 -5 -144 -7 -50 -12
-94 -10 -97 9 -15 -110 -307 -177 -435 -32 -61 -142 -198 -195 -244 -27 -23
-84 -60 -128 -82 -44 -22 -84 -45 -89 -50 -22 -20 28 -7 99 26 75 36 151 101
227 195 19 25 47 59 60 75 14 17 39 59 57 95 18 36 48 92 66 125 18 33 45 89
60 125 15 36 31 72 35 81 5 9 16 58 24 109 9 51 18 95 20 99 6 8 -13 183 -21
201 -20 44 -31 106 -21 118 8 9 3 12 -22 12 -27 0 -31 -3 -25 -17z"/>
<path d="M3184 6705 c-16 -13 -17 -16 -4 -25 10 -6 11 -10 3 -10 -24 0 -44
-45 -34 -72 7 -18 6 -29 -2 -38 -10 -10 -6 -11 18 -7 17 4 24 4 18 1 -40 -17
16 -93 69 -95 25 -1 27 -3 10 -6 -31 -6 -23 -26 14 -36 16 -5 42 -13 58 -18
20 -6 34 -5 44 4 8 6 27 18 41 25 25 11 24 12 -11 7 -30 -5 -38 -3 -38 10 0 8
7 15 15 15 8 0 15 4 15 8 0 4 -12 8 -27 7 -23 0 -29 5 -31 27 -3 28 -3 28 -65
21 -53 -5 -60 -4 -51 8 6 8 11 43 12 77 1 53 -1 62 -13 52 -9 -7 -15 -8 -20 0
-3 5 0 13 9 16 8 3 17 12 20 20 4 9 2 12 -5 8 -6 -4 -14 -1 -18 5 -5 8 -13 7
-27 -4z"/>
<path d="M2 873 l-2 -873 985 0 c781 0 985 3 987 13 0 6 2 17 3 22 2 6 3 18 4
28 0 9 8 17 16 17 8 0 15 9 15 20 0 13 -7 20 -20 20 -11 0 -20 6 -20 13 0 7
-9 18 -19 24 -17 11 -20 9 -24 -10 l-4 -22 -8 22 c-4 13 -11 23 -16 23 -5 0
-9 11 -9 25 0 14 -10 47 -22 75 -18 42 -27 51 -55 56 -18 3 -33 10 -33 16 0
13 -51 58 -66 58 -7 0 -15 18 -19 42 -10 54 -66 113 -117 122 -21 4 -38 12
-38 18 0 17 -49 58 -71 58 -11 0 -22 7 -25 15 -4 8 -10 12 -15 9 -5 -3 -9 0
-9 5 0 6 -5 11 -10 11 -6 0 -21 11 -33 23 -12 13 -34 27 -48 30 -14 4 -31 17
-38 31 -10 18 -25 26 -57 31 -24 3 -44 11 -44 16 0 14 -56 69 -69 69 -6 0 -11
6 -11 14 0 7 -15 16 -32 20 -37 7 -98 69 -98 98 0 11 -7 18 -20 18 -16 0 -20
7 -20 34 l0 34 -71 4 c-45 2 -73 9 -79 17 -4 8 -14 12 -21 9 -10 -4 -14 4 -14
31 0 22 -4 35 -12 34 -6 -2 -14 6 -18 16 -3 11 -12 22 -20 25 -8 3 -15 12 -15
21 0 11 -11 15 -45 15 -25 0 -45 5 -45 11 0 6 -14 25 -31 42 -28 28 -40 32
-100 35 -53 3 -66 7 -62 18 4 11 -8 14 -56 14 -54 0 -61 2 -61 20 0 11 -5 20
-12 20 -13 0 -58 48 -58 62 0 13 -58 10 -62 -4 -7 -20 -92 48 -93 75 0 4 -5
11 -11 15 -7 4 -13 15 -15 25 -2 10 -8 18 -14 17 -5 0 -13 28 -16 62 -3 35 -6
-330 -7 -809z"/>
</g>
</svg>
